<?xml version="1.0" encoding="UTF-8" standalone="no"?>
<svg
        viewBox="0 0 12 12"
        version="1.1"
        id="svg4"
        width="12"
        height="12"
        xmlns="http://www.w3.org/2000/svg"
        xmlns:svg="http://www.w3.org/2000/svg">
    <defs
            id="defs8" />
    <g
            id="layer1">
        <path
                d="M 6,0 C 2.6854838,0 0,2.6854838 0,6 0,9.3145166 2.6854838,12 6,12 9.3145166,12 12,9.3145166 12,6 12,2.6854838 9.3145166,0 6,0 Z m 3.4838709,6.6774195 c 0,0.1596773 -0.1306449,0.2903227 -0.290322,0.2903227 H 6.9677422 v 2.2258067 c 0,0.1596771 -0.1306454,0.290322 -0.2903227,0.290322 h -1.354839 c -0.1596773,0 -0.2903227,-0.1306449 -0.2903227,-0.290322 V 6.9677422 H 2.8064512 c -0.1596772,0 -0.290322,-0.1306454 -0.290322,-0.2903227 v -1.354839 c 0,-0.1596773 0.1306448,-0.2903227 0.290322,-0.2903227 H 5.0322578 V 2.8064512 c 0,-0.1596772 0.1306454,-0.290322 0.2903227,-0.290322 h 1.354839 c 0.1596773,0 0.2903227,0.1306448 0.2903227,0.290322 v 2.2258066 h 2.2258067 c 0.1596771,0 0.290322,0.1306454 0.290322,0.2903227 z"
                id="path2"
                style="fill:#49799c;fill-opacity:1;stroke-width:0.0241935" />
    </g>
</svg>